<svg xmlns="http://www.w3.org/2000/svg" width="165" height="64" fill="none" viewBox="0 0 165 64"><path fill="#faff03" d="M151.664 44.41C149.704 44.41 147.93 44.083 146.344 43.43 144.757 42.777 143.392 41.867 142.249 40.7 141.105 39.533 140.219 38.18 139.589 36.64 138.982 35.1 138.679 33.443 138.679 31.67 138.679 29.897 138.982 28.24 139.589 26.7 140.219 25.16 141.094 23.818 142.214 22.675 143.357 21.508 144.722 20.61 146.309 19.98 147.919 19.327 149.704 19 151.664 19 153.6 19 155.362 19.327 156.949 19.98 158.559 20.61 159.924 21.508 161.044 22.675 162.187 23.818 163.074 25.172 163.704 26.735 164.334 28.275 164.649 29.92 164.649 31.67 164.649 33.443 164.334 35.1 163.704 36.64 163.074 38.18 162.187 39.533 161.044 40.7 159.924 41.867 158.559 42.777 156.949 43.43 155.362 44.083 153.6 44.41 151.664 44.41ZM151.664 39.405C152.69 39.405 153.635 39.218 154.499 38.845 155.385 38.448 156.144 37.9 156.774 37.2 157.404 36.5 157.894 35.683 158.244 34.75 158.594 33.793 158.769 32.767 158.769 31.67 158.769 30.573 158.594 29.558 158.244 28.625 157.894 27.692 157.404 26.875 156.774 26.175 156.144 25.475 155.385 24.938 154.499 24.565 153.635 24.168 152.69 23.97 151.664 23.97 150.614 23.97 149.657 24.168 148.794 24.565 147.93 24.938 147.172 25.475 146.519 26.175 145.889 26.875 145.399 27.703 145.049 28.66 144.722 29.593 144.559 30.597 144.559 31.67 144.559 32.767 144.722 33.793 145.049 34.75 145.399 35.683 145.889 36.5 146.519 37.2 147.172 37.9 147.93 38.448 148.794 38.845 149.657 39.218 150.614 39.405 151.664 39.405ZM115.873 43.955V19.455H127.073C128.73 19.455 130.235 19.817 131.588 20.54 132.965 21.263 134.05 22.267 134.843 23.55 135.66 24.833 136.068 26.315 136.068 27.995 136.068 29.558 135.695 30.97 134.948 32.23 134.201 33.467 133.221 34.47 132.008 35.24L133.968 38.565C134.085 38.728 134.213 38.857 134.353 38.95 134.516 39.043 134.726 39.09 134.983 39.09H137.153L138.153 43.955H133.723C132.673 43.955 131.716 43.71 130.853 43.22 129.99 42.707 129.313 42.042 128.823 41.225L126.198 36.57C126.035 36.57 125.86 36.57 125.673 36.57 125.51 36.57 125.335 36.57 125.148 36.57H121.753V43.955H115.873ZM121.753 31.705H126.408C127.085 31.705 127.715 31.565 128.298 31.285 128.881 30.982 129.336 30.562 129.663 30.025 130.013 29.465 130.188 28.8 130.188 28.03 130.188 27.26 130.013 26.607 129.663 26.07 129.313 25.51 128.846 25.09 128.263 24.81 127.703 24.507 127.085 24.355 126.408 24.355H121.753V31.705ZM99.779 44.41C97.819 44.41 96.046 44.083 94.459 43.43 92.872 42.777 91.507 41.867 90.364 40.7 89.221 39.533 88.334 38.18 87.704 36.64 87.097 35.1 86.794 33.443 86.794 31.67 86.794 29.897 87.097 28.24 87.704 26.7 88.334 25.16 89.209 23.818 90.329 22.675 91.472 21.508 92.837 20.61 94.424 19.98 96.034 19.327 97.819 19 99.779 19 101.716 19 103.477 19.327 105.064 19.98 106.674 20.61 108.039 21.508 109.159 22.675 110.302 23.818 111.189 25.172 111.819 26.735 112.449 28.275 112.764 29.92 112.764 31.67 112.764 33.443 112.449 35.1 111.819 36.64 111.189 38.18 110.302 39.533 109.159 40.7 108.039 41.867 106.674 42.777 105.064 43.43 103.477 44.083 101.716 44.41 99.779 44.41ZM99.779 39.405C100.806 39.405 101.751 39.218 102.614 38.845 103.501 38.448 104.259 37.9 104.889 37.2 105.519 36.5 106.009 35.683 106.359 34.75 106.709 33.793 106.884 32.767 106.884 31.67 106.884 30.573 106.709 29.558 106.359 28.625 106.009 27.692 105.519 26.875 104.889 26.175 104.259 25.475 103.501 24.938 102.614 24.565 101.751 24.168 100.806 23.97 99.779 23.97 98.729 23.97 97.772 24.168 96.909 24.565 96.046 24.938 95.287 25.475 94.634 26.175 94.004 26.875 93.514 27.703 93.164 28.66 92.837 29.593 92.674 30.597 92.674 31.67 92.674 32.767 92.837 33.793 93.164 34.75 93.514 35.683 94.004 36.5 94.634 37.2 95.287 37.9 96.046 38.448 96.909 38.845 97.772 39.218 98.729 39.405 99.779 39.405ZM80.374 43.955C78.88 43.955 77.562 43.628 76.419 42.975 75.299 42.298 74.412 41.4 73.759 40.28 73.129 39.16 72.814 37.912 72.814 36.535V24.355H66.164V19.455H85.309V24.355H78.694V37.06C78.694 37.597 78.88 38.063 79.254 38.46 79.627 38.857 80.094 39.055 80.654 39.055H83.579L84.579 43.955H80.374ZM51.739 44.41C49.779 44.41 48.006 44.083 46.419 43.43 44.832 42.777 43.467 41.867 42.324 40.7 41.181 39.533 40.294 38.18 39.664 36.64 39.057 35.1 38.754 33.443 38.754 31.67 38.754 29.897 39.057 28.24 39.664 26.7 40.294 25.16 41.169 23.818 42.289 22.675 43.432 21.508 44.797 20.61 46.384 19.98 47.994 19.327 49.779 19 51.739 19 53.676 19 55.437 19.327 57.024 19.98 58.634 20.61 59.999 21.508 61.119 22.675 62.262 23.818 63.149 25.172 63.779 26.735 64.409 28.275 64.724 29.92 64.724 31.67 64.724 33.443 64.409 35.1 63.779 36.64 63.149 38.18 62.262 39.533 61.119 40.7 59.999 41.867 58.634 42.777 57.024 43.43 55.437 44.083 53.676 44.41 51.739 44.41ZM51.739 39.405C52.766 39.405 53.711 39.218 54.574 38.845 55.461 38.448 56.219 37.9 56.849 37.2 57.479 36.5 57.969 35.683 58.319 34.75 58.669 33.793 58.844 32.767 58.844 31.67 58.844 30.573 58.669 29.558 58.319 28.625 57.969 27.692 57.479 26.875 56.849 26.175 56.219 25.475 55.461 24.938 54.574 24.565 53.711 24.168 52.766 23.97 51.739 23.97 50.689 23.97 49.732 24.168 48.869 24.565 48.006 24.938 47.247 25.475 46.594 26.175 45.964 26.875 45.474 27.703 45.124 28.66 44.797 29.593 44.634 30.597 44.634 31.67 44.634 32.767 44.797 33.793 45.124 34.75 45.474 35.683 45.964 36.5 46.594 37.2 47.247 37.9 48.006 38.448 48.869 38.845 49.732 39.218 50.689 39.405 51.739 39.405ZM30.235 43.955C28.719 43.955 27.389 43.617 26.245 42.94 25.102 42.263 24.215 41.365 23.585 40.245 22.955 39.125 22.64 37.888 22.64 36.535V19.455H28.52V36.955C28.52 37.515 28.719 38.005 29.115 38.425 29.512 38.845 30.002 39.055 30.585 39.055H37.06L38.06 43.955H30.235ZM1.015 43.955V39.055H11.48C11.947 39.055 12.367 38.938 12.74 38.705 13.113 38.472 13.405 38.168 13.615 37.795 13.848 37.422 13.965 37.013 13.965 36.57 13.965 36.103 13.848 35.683 13.615 35.31 13.405 34.937 13.113 34.633 12.74 34.4 12.367 34.167 11.947 34.05 11.48 34.05H7.7C6.277 34.05 4.982 33.77 3.815 33.21 2.648 32.65 1.715 31.833 1.015 30.76.338 29.663 0 28.357 0 26.84 0 25.347.327 24.052.98 22.955 1.633 21.858 2.52 21.007 3.64 20.4 4.76 19.77 5.997 19.455 7.35 19.455H18.165V24.355H8.015C7.595 24.355 7.21 24.46 6.86 24.67 6.51 24.88 6.242 25.16 6.055 25.51 5.868 25.86 5.775 26.245 5.775 26.665 5.775 27.085 5.868 27.47 6.055 27.82 6.242 28.147 6.51 28.415 6.86 28.625 7.21 28.835 7.595 28.94 8.015 28.94H11.97C13.533 28.94 14.887 29.243 16.03 29.85 17.197 30.433 18.095 31.262 18.725 32.335 19.378 33.385 19.705 34.622 19.705 36.045 19.705 37.725 19.367 39.16 18.69 40.35 18.037 41.517 17.15 42.415 16.03 43.045 14.91 43.652 13.673 43.955 12.32 43.955H1.015Z"/></svg>